<svg xmlns="http://www.w3.org/2000/svg" width="430" height="430" style="width:100%;height:100%;transform:translate3d(0,0,0);content-visibility:visible" viewBox="0 0 430 430"><defs><clipPath id="h"><path d="M0 0h430v430H0z"/></clipPath><clipPath id="n"><path d="M0 0h430v430H0z"/></clipPath><clipPath id="g"><path d="M0 0h430v430H0z"/></clipPath><clipPath id="p"><path d="M0 0h430v430H0z"/></clipPath><clipPath id="o"><path d="M0 0h430v430H0z"/></clipPath><clipPath id="l"><path d="M0 0h430v430H0z"/></clipPath><clipPath id="m"><path d="M0 0h430v430H0z"/></clipPath><clipPath id="i"><path d="M0 0h430v430H0z"/></clipPath><clipPath id="j"><path d="M0 0h430v430H0z"/></clipPath><mask id="s" mask-type="alpha"><use xmlns:ns1="http://www.w3.org/1999/xlink" ns1:href="#a"/></mask><mask id="r" mask-type="alpha"><g filter="url(#b)"><path fill="#fff" d="M0 0h430v430H0z" opacity="0"/><use xmlns:ns2="http://www.w3.org/1999/xlink" ns2:href="#c"/></g></mask><mask id="q" mask-type="alpha"><use xmlns:ns3="http://www.w3.org/1999/xlink" ns3:href="#d"/></mask><mask id="k" mask-type="alpha"><g filter="url(#e)"><path fill="#fff" d="M0 0h430v430H0z" opacity="0"/><use xmlns:ns4="http://www.w3.org/1999/xlink" ns4:href="#f"/></g></mask><path id="a" class="primary" style="display:none"/><path id="c" style="display:none"/><path id="f" style="display:none"/><filter id="b" width="100%" height="100%" x="0%" y="0%" filterUnits="objectBoundingBox"><feComponentTransfer in="SourceGraphic"><feFuncA tableValues="1.0 0.0" type="table"/></feComponentTransfer></filter><filter id="e" width="100%" height="100%" x="0%" y="0%" filterUnits="objectBoundingBox"><feComponentTransfer in="SourceGraphic"><feFuncA tableValues="1.0 0.0" type="table"/></feComponentTransfer></filter><g id="d" clip-path="url(#g)" style="display:none"><path class="primary" style="display:none"/><path class="primary" style="display:none"/><path class="primary" style="display:none"/><path class="primary" style="display:none"/><path class="primary" style="display:none"/></g></defs><g clip-path="url(#h)"><g clip-path="url(#i)" style="display:none"><g clip-path="url(#j)" style="display:none"><path class="secondary" style="display:none"/><g style="mix-blend-mode:multiply;display:none"><path class="secondary" style="mix-blend-mode:multiply"/></g><path fill="none" class="secondary" style="display:none"/><path fill="none" class="secondary" style="display:none"/><path fill="none" class="secondary" style="display:none"/><path fill="none" class="secondary" style="display:none"/><path fill="none" class="secondary" style="display:none"/></g><path class="tertiary" style="display:none"/><g mask="url(#k)" style="mix-blend-mode:multiply;display:none"><path class="tertiary"/></g><g style="display:none"><path class="primary"/><path class="primary" style="mix-blend-mode:multiply"/></g></g><g clip-path="url(#l)" style="display:block"><g clip-path="url(#m)" style="display:block" transform="translate(9.5 -38.5)"><path fill="#FFC738" d="M-75.934 0c0 41.937 33.997 75.934 75.934 75.934S75.934 41.937 75.934 0 41.937-75.934 0-75.934-75.934-41.937-75.934 0z" class="secondary" style="display:block" transform="translate(265.835 196.066)"/><g opacity=".5" style="mix-blend-mode:multiply;display:block"><path fill="#FFC738" d="M-29.389 61.128H-.8c-9.072-12.94-14.786-28.362-14.568-45.36.412-32.206 22.012-62.428 54.468-76.896-8.09.674-22.254 2.943-37.134 11.716-10.148 5.983-16.567 12.596-18.898 15.118C-38.37-11.107-39.06 17.458-39.096 21.522c-.068 7.53.855 21.179 7.897 36.027a79.779 79.779 0 0 0 1.81 3.579z" class="secondary" opacity="1" style="mix-blend-mode:multiply" transform="translate(227.45 179.797)"/></g><path fill="none" stroke="#FFC738" stroke-linecap="round" stroke-linejoin="round" stroke-width="7" d="M0 0" class="secondary" style="display:block" transform="rotate(90 -27.225 293.06)"/><path fill="none" stroke="#FFC738" stroke-linecap="round" stroke-linejoin="round" stroke-width="7" d="M-16.939 0h33.878" class="secondary" style="display:block" transform="rotate(45 -165.864 568.869)"/><path fill="none" stroke="#FFC738" stroke-linecap="round" stroke-linejoin="round" stroke-width="7" d="M-16.939 0h33.878" class="secondary" style="display:block" transform="translate(390.053 196.066)"/><path fill="none" stroke="#FFC738" stroke-linecap="round" stroke-linejoin="round" stroke-width="7" d="M-16.939 0h33.878" class="secondary" style="display:block" transform="rotate(-45 307.481 -372.803)"/><path fill="none" stroke="#FFC738" stroke-linecap="round" stroke-linejoin="round" stroke-width="7" d="M-16.939 0h33.878" class="secondary" style="display:block" transform="rotate(-90 168.841 -96.993)"/><path fill="none" stroke="#FFC738" stroke-linecap="round" stroke-linejoin="round" stroke-width="7" d="M-16.939 0h33.878" class="secondary" style="display:block" transform="rotate(-135 111.415 17.25)"/></g><path fill="#EBE6EF" d="M69.039 44.355c0 12.127 9.83 21.957 21.957 21.957s21.957-9.83 21.957-21.957S90.996-3.933 90.996-3.933 69.039 32.228 69.039 44.355zm96.618-34.561c0 9.022 7.313 16.335 16.335 16.335 9.022 0 16.335-7.313 16.335-16.335 0-9.022-16.335-35.923-16.335-35.923S165.657.772 165.657 9.794zm-181.992 0c0 9.022 7.313 16.335 16.335 16.335 9.022 0 16.335-7.313 16.335-16.335C16.335.772 0-26.129 0-26.129S-16.335.772-16.335 9.794z" class="tertiary" style="display:block" transform="matrix(.95 0 0 .95 98.554 321.31)"/><g style="mix-blend-mode:multiply;display:block"><path fill="#EBE6EF" d="M69.039 44.355c0 12.127 9.83 21.957 21.957 21.957 2.113 0 4.489-.345 6.486-.592-1.288-.487-19.644-7.889-18.213-21.628C80.141 35.72 89.68 20.2 96.101 4.694c.158-.35-5.105-8.627-5.105-8.627S69.039 32.228 69.039 44.355zm97.194-35.021c0 9.022 7.905 16.664 16.927 16.664 1.147 0 2.278-.069 3.347-.344.541-.192-13.131-8.512-13.131-16.386 0-6.395 8.607-23.871 12.408-29.464.41.001-3.348-5.736-3.348-5.736S166.233.312 166.233 9.334zm-182.568.46c0 9.022 7.313 16.335 16.335 16.335 1.07 0 4.161-.317 3.129-.299-1.607.028-12.913-7.427-12.913-15.378 0-6.253 9.069-23.476 13.454-30.276C3.299-20.195 0-26.129 0-26.129S-16.335.772-16.335 9.794z" class="tertiary" opacity=".5" style="mix-blend-mode:multiply" transform="matrix(.95 0 0 .95 98.554 321.31)"/></g><g fill="#4BB3FD" style="display:block"><path d="M285.444 133.687c-15.61-34.182-50.085-57.937-90.118-57.937-36.728 0-65.643 19.733-82.734 49.434-20.209-4.816-42.756 14.192-39.74 34.739-17.103 9.585-28.648 27.888-28.648 48.872 0 30.929 25.062 55.991 55.991 55.991h161.2c37.42 0 67.749-30.328 67.749-67.749 0-28.955-18.157-53.658-43.7-63.35z" class="primary"/><path d="M-110.685 9.863c0-20.984 11.545-39.288 28.649-48.873-3.016-20.547 15.781-38.555 35.99-33.739 11.057-19.215 28.636-34.666 49.613-43.189-12.165-5.338-25.603-8.313-39.741-8.313-36.728 0-65.644 19.733-82.735 49.435-20.209-4.816-42.756 14.192-39.74 34.739-17.104 9.585-28.649 27.889-28.649 48.873 0 30.929 25.063 55.992 55.992 55.992h65.721c-25.712-5.068-45.1-27.724-45.1-54.925z" class="primary" opacity=".5" style="mix-blend-mode:multiply" transform="translate(231.5 200) scale(.99999)"/></g></g><g clip-path="url(#n)" style="display:none"><g clip-path="url(#o)" style="display:none"><path class="secondary" style="display:none"/><g style="mix-blend-mode:multiply;display:none"><path class="secondary" style="mix-blend-mode:multiply"/></g><path fill="none" class="secondary" style="display:none"/><path fill="none" class="secondary" style="display:none"/><path fill="none" class="secondary" style="display:none"/><path fill="none" class="secondary" style="display:none"/><path fill="none" class="secondary" style="display:none"/></g><g clip-path="url(#p)" style="display:none"><path class="primary" style="display:none"/><path class="primary" style="display:none"/><path class="primary" style="display:none"/><path class="primary" style="display:none"/><path class="primary" style="display:none"/></g><g mask="url(#q)" style="mix-blend-mode:multiply;display:none"><path class="primary"/></g><path class="tertiary" style="display:none"/><g mask="url(#r)" style="mix-blend-mode:multiply;display:none"><path class="tertiary"/></g><path class="primary" style="display:none"/><g mask="url(#s)" style="mix-blend-mode:multiply;display:none"><path class="primary"/></g></g></g></svg>